:SAMPLES-PER-SECOND 30
:FULLY-SPECIFIED
:DEGREES
177
root  -63.999 35.2221 -0.980252 -34.4337 -74.9161 54.2276
RightUpLeg  -62.6362 -24.4127 -10.0653
RightLeg  53.4565 9.03618 12.4751
RightFoot  -6.48205 -0.0537165 0.291353
RightToes  2.91037e-010 0 -3.6325e-017
Spine  69.243 -16.9234 16.9588
Spine1  -3.86389 -8.37249 -0.570883
HEad  -42.5134 -12.7401 2.68784
LeftShoulder1  1.6609 -19.0113 1.24153
LeftArm  -64.1749 -59.6544 -22.7048
LeftForeArm  8.38051 -22.9214 -4.09483
LeftHand  -0.0866342 1.82263 2.6169
RightShoulder  0.677251 6.06939 -1.56167
RightArm  -61.1496 56.8329 -7.59789
RightForeArm  -20.2055 17.6601 0.741453
RightHand  -0.0997689 9.76066 -1.16728
LeftUpLeg  -60.489 -16.571 -3.0666
LeftLeg  43.3532 -4.59137 -4.26242
LeftFoot  -1.24842 0.112107 -1.16473
LeftToes  -7.53974e-010 3.3384e-011 -1.25048e-011
178
root  -63.894 35.4857 -0.243126 -48.0598 -77.2504 65.2181
RightUpLeg  -58.3137 -19.6982 -13.4016
RightLeg  50.4564 9.02056 11.1503
RightFoot  -5.9313 -0.166852 2.93915
RightToes  2.91037e-010 0 -3.6325e-017
Spine  69.1882 -15.7472 15.7848
Spine1  -2.00073 -7.6639 -0.493252
HEad  -42.6336 -13.3311 3.18519
LeftShoulder1  1.9439 -18.4128 -0.45606
LeftArm  -55.9992 -56.4196 -27.54
LeftForeArm  6.21563 -27.4504 -5.65078
LeftHand  -0.0912058 0.352312 2.05861
RightShoulder  0.775002 4.97334 0.803859
RightArm  -64.3927 55.2335 -2.63082
RightForeArm  -10.6701 24.2658 5.79219
RightHand  -0.192767 10.0604 -1.85368
LeftUpLeg  -58.1729 -19.3851 0.232643
LeftLeg  44.1207 -8.60152 -8.45701
LeftFoot  -3.04904 0.143305 -1.79514
LeftToes  -7.53974e-010 3.3384e-011 -1.25048e-011
179
root  -63.7783 35.7978 0.611385 -71.4588 -79.5369 85.495
RightUpLeg  -54.3491 -14.8848 -15.1655
RightLeg  47.182 10.1565 11.203
RightFoot  -2.85953 -0.146115 1.65081
RightToes  2.91037e-010 0 -3.6325e-017
Spine  69.2512 -13.7774 14.6524
Spine1  0.216035 -6.08524 -0.142754
HEad  -42.8351 -14.9688 3.02365
LeftShoulder1  2.24268 -17.4172 -2.56519
LeftArm  -48.565 -53.3123 -34.3555
LeftForeArm  6.7205 -33.4141 -7.04926
LeftHand  -0.0874561 0.00864854 1.90351
RightShoulder  0.858609 3.7937 3.8183
RightArm  -58.2455 53.0892 1.94891
RightForeArm  -11.2673 31.822 7.63024
RightHand  -0.200702 9.96335 -1.91955
LeftUpLeg  -54.6142 -21.1296 2.31756
LeftLeg  44.2252 -10.6662 -10.5592
LeftFoot  -5.35373 0.20223 -3.18952
LeftToes  -7.53974e-010 3.3384e-011 -1.25048e-011
180
root  -63.6732 36.0584 1.57132 -104.088 -79.5971 115.206
RightUpLeg  -50.6811 -10.0503 -16.5893
RightLeg  43.2672 11.6683 11.2391
RightFoot  -2.03942 -0.398439 4.72461
RightToes  2.91037e-010 0 -3.6325e-017
Spine  68.9466 -11.7598 13.1649
Spine1  1.9843 -4.786 -0.197658
HEad  -43.2951 -15.1043 3.07668
LeftShoulder1  2.64644 -16.063 -5.74005
LeftArm  -41.802 -48.4736 -39.4933
LeftForeArm  7.31388 -40.306 -9.03861
LeftHand  -0.0656262 -0.627821 1.35323
RightShoulder  0.842857 2.36767 6.6963
RightArm  -51.5081 51.4141 8.98018
RightForeArm  -8.16371 39.6107 9.7751
RightHand  -0.18554 9.73618 -1.82354
LeftUpLeg  -50.4667 -20.8155 2.05362
LeftLeg  43.6843 -10.6405 -10.3479
LeftFoot  -6.66812 0.129521 -2.14885
LeftToes  -7.53974e-010 3.3384e-011 -1.25048e-011
181
root  -63.5858 36.3662 2.59571 -133.699 -76.964 141.988
RightUpLeg  -47.0477 -5.22097 -17.0939
RightLeg  38.4535 13.9143 11.3085
RightFoot  0.41225 -0.656124 6.36759
RightToes  2.91037e-010 0 -3.6325e-017
Spine  68.2555 -9.72875 11.4567
Spine1  4.14188 -3.44752 -0.517114
HEad  -42.1259 -16.1631 1.7615
LeftShoulder1  3.01402 -14.6779 -9.12071
LeftArm  -37.4673 -42.5539 -42.5849
LeftForeArm  9.24351 -47.2915 -11.505
LeftHand  -0.0158583 -1.10793 0.384993
RightShoulder  0.751261 1.1431 8.84091
RightArm  -45.1474 49.2532 16.9241
RightForeArm  -4.63795 47.2065 12.4355
RightHand  -0.274473 10.1809 -2.44521
LeftUpLeg  -45.6022 -18.3337 0.468603
LeftLeg  41.9824 -8.15605 -7.42775
LeftFoot  -7.34291 0.0454356 -0.0929084
LeftToes  -7.53974e-010 3.3384e-011 -1.25048e-011
182
root  -63.5223 36.6269 3.72343 -151.036 -73.392 157.27
RightUpLeg  -43.6648 -2.75657 -16.368
RightLeg  32.8982 17.4276 11.572
RightFoot  3.0102 -1.08492 8.76122
RightToes  2.91037e-010 0 -3.6325e-017
Spine  66.5159 -9.14125 10.8123
Spine1  5.52285 -2.76808 -1.92551
HEad  -41.8907 -15.8611 1.26817
LeftShoulder1  3.16474 -12.6999 -12.614
LeftArm  -33.7779 -36.198 -43.8219
LeftForeArm  11.607 -54.1159 -14.6807
LeftHand  -0.0177205 -0.922381 0.393821
RightShoulder  0.750313 0.433534 11.8181
RightArm  -38.6147 46.3866 23.606
RightForeArm  -2.18585 53.4537 15.4792
RightHand  -0.423162 10.498 -3.50485
LeftUpLeg  -42.2201 -15.5145 -0.680926
LeftLeg  40.612 -5.71237 -4.84942
LeftFoot  -6.47381 -0.0337623 1.70673
LeftToes  -7.53974e-010 3.3384e-011 -1.25048e-011
183
root  -63.47 36.8238 4.88212 -159.734 -69.66 164.419
RightUpLeg  -40.5804 -2.19327 -15.6097
RightLeg  27.2016 21.4182 11.2544
RightFoot  4.71677 -1.55437 11.2621
RightToes  2.91037e-010 0 -3.6325e-017
Spine  65.9293 -11.0609 10.5689
Spine1  2.4267 -3.93552 -6.06367
HEad  -39.7936 -13.8458 1.45267
LeftShoulder1  3.09995 -9.01033 -18.0824
LeftArm  -28.5018 -29.1072 -40.842
LeftForeArm  13.9431 -60.04 -18.623
LeftHand  -0.0770733 -1.56623 1.45007
RightShoulder  0.980304 0.991746 15.169
RightArm  -30.3758 41.6707 32.8919
RightForeArm  2.21154 59.1259 19.0216
RightHand  -0.523789 9.61059 -4.42731
LeftUpLeg  -40.0286 -12.2871 -2.00122
LeftLeg  39.6363 -4.81262 -3.8868
LeftFoot  -4.87006 -0.125117 2.7261
LeftToes  -7.53974e-010 3.3384e-011 -1.25048e-011
